<svg width="21" height="21" viewBox="0 0 21 21" fill="none" xmlns="http://www.w3.org/2000/svg">
    <path
        d="M15.5 11C15.5 9.46667 14.9667 8.16667 13.9 7.1C12.8333 6.03333 11.5333 5.5 10 5.5C11.5333 5.5 12.8333 4.96667 13.9 3.9C14.9667 2.83333 15.5 1.53333 15.5 -9.53674e-07C15.5 1.53333 16.0333 2.83333 17.1 3.9C18.1667 4.96667 19.4667 5.5 21 5.5C19.4667 5.5 18.1667 6.03333 17.1 7.1C16.0333 8.16667 15.5 9.46667 15.5 11ZM5.96046e-08 21V3C5.96046e-08 2.45 0.191667 1.98333 0.575 1.6C0.975 1.2 1.45 1 2 1H10.8C10.3 1.53333 9.89167 2.14167 9.575 2.825C9.275 3.49167 9.09167 4.21667 9.025 5H4V7H9.175C9.20833 7.18333 9.25 7.35833 9.3 7.525C9.36667 7.675 9.43333 7.83333 9.5 8H4V10H10.8C10.9833 10.1833 11.175 10.3667 11.375 10.55C11.575 10.7167 11.7917 10.8667 12.025 11H4V13H14V11.825C14.2333 11.8917 14.475 11.9417 14.725 11.975C14.975 11.9917 15.2333 12 15.5 12C16.3833 12 17.2083 11.8417 17.975 11.525C18.7417 11.2083 19.4167 10.7667 20 10.2V15C20 15.55 19.8 16.025 19.4 16.425C19.0167 16.8083 18.55 17 18 17H4L5.96046e-08 21Z"
        fill="#E3E3E3" />
</svg>