<svg width="24" height="24" viewBox="0 0 24 24" fill="none" xmlns="http://www.w3.org/2000/svg">
    <g clip-path="url(#clip0_4961_680)">
        <path
            d="M6 14H16V12.825C15.65 12.7417 15.3083 12.6333 14.975 12.5C14.6417 12.35 14.325 12.1833 14.025 12H6V14ZM6 11H12.8C12.5167 10.7167 12.2667 10.4083 12.05 10.075C11.8333 9.74167 11.65 9.38333 11.5 9H6V11ZM6 8H11V6H6V8ZM17.5 12C17.5 10.4667 16.9667 9.16667 15.9 8.1C14.8333 7.03333 13.5333 6.5 12 6.5C13.5333 6.5 14.8333 5.96667 15.9 4.9C16.9667 3.83333 17.5 2.53333 17.5 0.999999C17.5 2.53333 18.0333 3.83333 19.1 4.9C20.1667 5.96667 21.4667 6.5 23 6.5C21.4667 6.5 20.1667 7.03333 19.1 8.1C18.0333 9.16667 17.5 10.4667 17.5 12ZM4 12.5V16V17.125V4C4 4.38333 4 4.79167 4 5.225C4 5.64167 4 6.06667 4 6.5C4 8.31667 4 9.85833 4 11.125C4 12.375 4 13 4 13C4 13 4 12.9583 4 12.875C4 12.7917 4 12.6667 4 12.5ZM2 22V4C2 3.45 2.19167 2.98333 2.575 2.6C2.975 2.2 3.45 2 4 2H12.8C12.5167 2.28333 12.2667 2.59167 12.05 2.925C11.8333 3.25833 11.65 3.61667 11.5 4H4V17.125L5.15 16H20V12.5C20.3833 12.35 20.7417 12.1667 21.075 11.95C21.4083 11.7333 21.7167 11.4833 22 11.2V16C22 16.55 21.8 17.025 21.4 17.425C21.0167 17.8083 20.55 18 20 18H6L2 22Z"
            fill="#E3E3E3" />
    </g>
</svg>