<svg width="18" height="18" viewBox="0 0 18 18" fill="none" xmlns="http://www.w3.org/2000/svg">
    <path
        d="M9 18C6.7 18 4.69167 17.2417 2.975 15.725C1.275 14.1917 0.3 12.2833 0.0500003 10H2.1C2.33333 11.7333 3.1 13.1667 4.4 14.3C5.71667 15.4333 7.25 16 9 16C10.95 16 12.6 15.325 13.95 13.975C15.3167 12.6083 16 10.95 16 9C16 7.05 15.3167 5.4 13.95 4.05C12.6 2.68333 10.95 2 9 2C7.85 2 6.775 2.26667 5.775 2.8C4.775 3.33333 3.93333 4.06667 3.25 5H6V7H0V0.999999H2V3.35C2.85 2.28333 3.88333 1.45833 5.1 0.875C6.33333 0.291666 7.63333 -1.43051e-06 9 -1.43051e-06C10.25 -1.43051e-06 11.4167 0.241665 12.5 0.724999C13.6 1.19167 14.55 1.83333 15.35 2.65C16.1667 3.45 16.8083 4.4 17.275 5.5C17.7583 6.58333 18 7.75 18 9C18 10.25 17.7583 11.425 17.275 12.525C16.8083 13.6083 16.1667 14.5583 15.35 15.375C14.55 16.175 13.6 16.8167 12.5 17.3C11.4167 17.7667 10.25 18 9 18ZM11.8 13.2L8 9.4V4H10V8.6L13.2 11.8L11.8 13.2Z"
        fill="#E3E3E3" />
</svg>