<svg width="20" height="20" viewBox="0 0 20 20" fill="none" xmlns="http://www.w3.org/2000/svg">
    <path
        d="M2 16V2V16ZM4 6H14V4H4V6ZM4 10H8.75C9.08333 9.6 9.44167 9.23333 9.825 8.9C10.225 8.55 10.6583 8.25 11.125 8H4V10ZM4 14H7.05C7.08333 13.65 7.14167 13.3083 7.225 12.975C7.325 12.6417 7.44167 12.3167 7.575 12H4V14ZM2 18C1.45 18 0.975 17.8083 0.575 17.425C0.191667 17.025 0 16.55 0 16V2C0 1.45 0.191667 0.983333 0.575 0.599999C0.975 0.199999 1.45 -1.43051e-06 2 -1.43051e-06H16C16.55 -1.43051e-06 17.0167 0.199999 17.4 0.599999C17.8 0.983333 18 1.45 18 2V7.575C17.6833 7.44167 17.3583 7.33333 17.025 7.25C16.6917 7.15 16.35 7.08333 16 7.05V2H2V16H7.05C7.08333 16.35 7.14167 16.6917 7.225 17.025C7.325 17.3583 7.44167 17.6833 7.575 18H2ZM15 20C13.7833 20 12.7167 19.625 11.8 18.875C10.9 18.1083 10.3333 17.15 10.1 16H11.65C11.8667 16.7333 12.275 17.3333 12.875 17.8C13.4917 18.2667 14.2 18.5 15 18.5C15.9667 18.5 16.7917 18.1583 17.475 17.475C18.1583 16.7917 18.5 15.9667 18.5 15C18.5 14.0333 18.1583 13.2083 17.475 12.525C16.7917 11.8417 15.9667 11.5 15 11.5C14.5167 11.5 14.0667 11.5917 13.65 11.775C13.2333 11.9417 12.8667 12.1833 12.55 12.5H14V14H10V10H11.5V11.425C11.95 10.9917 12.475 10.65 13.075 10.4C13.675 10.1333 14.3167 10 15 10C16.3833 10 17.5583 10.4917 18.525 11.475C19.5083 12.4417 20 13.6167 20 15C20 16.3833 19.5083 17.5667 18.525 18.55C17.5583 19.5167 16.3833 20 15 20Z"
        fill="#E3E3E3" />
</svg>